<svg xmlns="http://www.w3.org/2000/svg" data-name="Layer 1" viewBox="0 0 24 24" width="512" height="512"><path d="M7.505 24A7.5 7.5 0 015.469 9.283a7.368 7.368 0 013.881-.048l7.908-7.906A4.5 4.5 0 0120.464 0 3.539 3.539 0 0124 3.536a4.508 4.508 0 01-1.328 3.207L22 7.415A2.014 2.014 0 0120.586 8H19v1a2 2 0 01-2 2h-1v1.586A1.986 1.986 0 0115.414 14l-.65.65a7.334 7.334 0 01-.047 3.88 7.529 7.529 0 01-6.428 5.429 7.654 7.654 0 01-.784.041zm0-13a5.5 5.5 0 105.289 6.99 5.4 5.4 0 00-.1-3.3 1 1 0 01.238-1.035L14 12.586V11a2 2 0 012-2h1V8a2 2 0 012-2h1.586l.672-.672A2.519 2.519 0 0022 3.536 1.537 1.537 0 0020.465 2a2.52 2.52 0 00-1.793.743l-8.331 8.33a1 1 0 01-1.036.237A5.462 5.462 0 007.5 11zM5 18a1 1 0 101-1 1 1 0 00-1 1z"/></svg>